<svg xmlns="http://www.w3.org/2000/svg" width="1024" height="1024" viewBox="0 0 1024 1024" version="1.1"><path d="M 617.223 203.557 C 614.652 205.357, 614.279 209.526, 616.416 212.576 C 617.705 214.417, 617.247 215.660, 611.266 226.548 C 598.223 250.293, 584.687 274.075, 583.961 274.524 C 583.553 274.776, 578.782 273.024, 573.359 270.630 C 561.352 265.328, 546.504 260.662, 531.075 257.342 C 515.273 253.941, 485.906 253.021, 468.953 255.396 C 455.637 257.261, 437.608 261.720, 425.840 266.059 C 397.521 276.501, 365.387 299.714, 346.342 323.487 C 321.889 354.013, 306.035 391.154, 302.068 427.211 C 295.610 485.917, 315.478 541.292, 358.500 584.487 C 367.443 593.467, 382.161 605.121, 391.250 610.420 C 393.863 611.944, 395.999 613.710, 395.998 614.345 C 395.995 615.667, 382.239 640.617, 369.722 662 C 362.008 675.178, 360.980 676.500, 358.443 676.500 C 356.176 676.500, 355.131 677.382, 352.891 681.188 L 350.131 685.876 354.816 688.791 C 362.688 693.690, 366.707 696, 367.355 696 C 367.696 696, 369.149 694.140, 370.585 691.866 C 372.851 688.276, 373.031 687.426, 371.949 685.405 C 370.857 683.365, 371.036 682.642, 373.396 679.547 L 376.089 676.016 381.795 678.882 C 407.317 691.700, 444.927 701.639, 475.353 703.606 C 482.028 704.038, 486 704.706, 486.001 705.397 C 486.004 708.527, 476.585 760.663, 475.845 761.616 C 475.368 762.229, 473.071 762.996, 470.739 763.319 C 462.153 764.509, 448.207 769.201, 437.500 774.502 C 424.874 780.753, 412.736 789.549, 400.513 801.303 C 393.296 808.243, 391.990 809.990, 391.994 812.694 C 391.998 814.601, 392.907 816.886, 394.250 818.362 L 396.500 820.836 508.644 821.168 C 617.768 821.491, 620.844 821.449, 622.894 819.595 C 626.357 816.462, 625.575 812.794, 620.018 806.117 C 604.644 787.643, 576.338 770.865, 550.500 764.911 C 545 763.643, 540.379 762.536, 540.230 762.450 C 539.791 762.196, 528.860 701.806, 529.194 701.481 C 529.362 701.318, 533.775 700.453, 539 699.560 C 578.925 692.737, 619.547 673.978, 653.500 646.685 C 664.152 638.122, 686.909 614.613, 695 603.813 C 722.976 566.471, 741.445 519.947, 746.088 475.124 C 747.838 458.227, 746.767 421.739, 744.074 406.500 C 736.314 362.597, 718.506 323.772, 689.494 287.504 C 675.158 269.581, 650.265 247.089, 629.750 233.520 C 626.587 231.428, 624 229.307, 624 228.807 C 624 228.306, 625.013 226.100, 626.250 223.905 C 628.316 220.240, 628.766 219.962, 631.750 220.502 C 634.354 220.974, 635.497 220.593, 637.500 218.591 C 642.388 213.703, 640.784 211.287, 628.895 205.623 C 620.184 201.473, 620.195 201.475, 617.223 203.557 M 611.571 247.884 C 607.922 253.890, 607.247 256, 608.975 256 C 609.511 256, 616.374 260.812, 624.225 266.693 C 639.085 277.824, 656.254 294.137, 666.645 307 C 689.576 335.385, 706.808 373.349, 713.625 410.500 C 715.948 423.158, 716.290 468.471, 714.165 482 C 712.311 493.805, 706.592 515.502, 702.324 526.926 C 679.287 588.580, 630.731 637.479, 569.341 660.849 C 557.546 665.339, 535.733 670.869, 523.275 672.527 C 508.725 674.463, 476.770 674.434, 463.128 672.471 C 441.887 669.414, 415.324 661.279, 398.119 652.560 C 395.340 651.152, 392.410 650, 391.608 650 C 390.193 650, 384 660.185, 384 662.512 C 384 663.811, 397.374 670.345, 409.500 674.970 C 464.443 695.929, 533.465 694.191, 586.922 670.503 C 627.502 652.522, 659.373 627.132, 685.389 592.060 C 706.495 563.608, 719.080 536.006, 727.136 500.500 C 731.786 480.007, 733.326 463.606, 732.678 441.500 C 731.876 414.161, 727.730 391.385, 719.223 367.585 C 711.575 346.191, 694.505 316.410, 678.529 296.586 C 664.689 279.414, 641.613 258.404, 624.968 247.821 C 614.638 241.253, 615.601 241.249, 611.571 247.884 M 597.022 273.954 C 595.157 277.810, 593.826 281.130, 594.065 281.332 C 594.304 281.534, 597.875 283.965, 602 286.734 C 612.750 293.951, 616.235 296.857, 627.864 308.301 C 656.385 336.368, 674.131 369.377, 682.536 410 C 685.743 425.498, 686.918 452.798, 685.075 469 C 680.680 507.644, 665.942 543.963, 643.276 572 C 635.709 581.361, 616.623 599.966, 608 606.388 C 598.678 613.329, 584.138 621.699, 572 627.111 C 560.463 632.255, 537.459 639.193, 526.500 640.834 C 490.884 646.167, 450.349 640.080, 417.071 624.400 C 411.885 621.957, 407.338 620.305, 406.967 620.729 C 406.595 621.153, 404.387 625, 402.060 629.279 L 397.828 637.057 409.164 642.436 C 441.140 657.607, 479.994 664.009, 515.500 659.956 C 527.447 658.593, 549.076 653.592, 561.484 649.325 C 594.607 637.934, 628.637 614.198, 652.186 586.058 C 683.193 549.007, 699.930 506.105, 702.535 457 C 704.500 419.954, 694.538 377.984, 676.187 346 C 663.763 324.346, 655.661 313.607, 639.891 297.887 C 631.603 289.625, 605.728 268.984, 601.742 267.455 C 600.870 267.120, 599.247 269.355, 597.022 273.954 M 487.500 268.641 C 465.773 270.449, 445.932 273.703, 445.313 275.560 C 444.799 277.102, 457.235 298.209, 464.192 307.602 C 470.212 315.731, 470.458 315.930, 472.664 314.484 C 495.217 299.707, 521.464 288.597, 544.579 284.043 C 559.330 281.137, 559.318 281.144, 553.500 278.823 C 536.934 272.213, 504.574 267.221, 487.500 268.641 M 421 283.992 C 393.317 296.241, 365.463 320.139, 347.026 347.462 C 344.262 351.558, 342 355.340, 342 355.866 C 342 356.392, 347.288 359.620, 353.750 363.038 C 360.212 366.456, 372.025 372.960, 380 377.490 C 396.877 387.078, 400.534 389, 401.900 389 C 402.450 389, 406.050 384.387, 409.901 378.750 C 422.505 360.299, 432.804 348.481, 449.800 332.967 L 459.100 324.478 454.401 318.489 C 448.074 310.424, 437.966 294.858, 434.153 287.304 C 432.444 283.917, 430.697 280.940, 430.272 280.688 C 429.848 280.437, 425.675 281.923, 421 283.992 M 557.569 296.619 C 532.749 300.487, 504.553 310.759, 488.116 321.921 C 480.740 326.930, 480.703 326.776, 491.731 337.001 C 506.636 350.820, 529.363 367.033, 531.224 365.175 C 532.067 364.333, 570 296.125, 570 295.451 C 570 294.818, 567.794 295.026, 557.569 296.619 M 578.619 307.750 C 575.182 314.816, 554.823 352.574, 548.573 363.476 C 546.058 367.862, 544 371.794, 544 372.213 C 544 374.522, 574.909 387.327, 590.500 391.476 C 596 392.940, 601.356 394.384, 602.403 394.685 C 604.228 395.209, 604.282 394.664, 603.718 381.366 C 603.061 365.847, 600.398 348.962, 596.490 335.528 C 593.157 324.070, 583.960 302, 582.518 302 C 581.912 302, 580.158 304.587, 578.619 307.750 M 601 305.500 C 601 305.830, 601.649 307.354, 602.442 308.887 C 605.257 314.332, 612.112 336.621, 614.616 348.471 C 616.581 357.773, 617.283 364.640, 617.712 378.764 L 618.267 397.029 620.868 397.682 C 624.166 398.509, 663.615 398.706, 664.429 397.899 C 665.385 396.952, 658.345 377.428, 653.452 367.455 C 647.975 356.291, 636.637 339.516, 628.005 329.806 C 617.857 318.390, 601 303.218, 601 305.500 M 457.567 345.277 C 440.315 361.296, 413.975 394.462, 416.561 396.911 C 417.400 397.706, 426.037 402.443, 476.164 429.598 C 483.679 433.669, 490.471 437, 491.257 437 C 492.660 437, 494.974 433.035, 510.514 404 C 514.783 396.025, 519.588 387.171, 521.191 384.324 L 524.108 379.148 513.307 371.964 C 499.041 362.476, 487.315 353.268, 477.394 343.765 C 472.935 339.494, 468.885 336.012, 468.394 336.027 C 467.902 336.042, 463.030 340.205, 457.567 345.277 M 331.101 377.207 C 318.237 405.208, 312.995 437.200, 316.423 466.769 C 317.333 474.618, 318.291 481.593, 318.551 482.269 C 318.909 483.200, 325.478 483.507, 345.449 483.529 L 371.873 483.558 372.496 478.529 C 375.608 453.406, 382.733 428.358, 391.977 410.045 C 393.714 406.605, 394.930 403.261, 394.682 402.613 C 394.433 401.965, 387.765 397.872, 379.865 393.519 C 371.964 389.166, 360.550 382.828, 354.500 379.435 C 348.450 376.042, 341.567 372.286, 339.205 371.090 L 334.911 368.914 331.101 377.207 M 533.203 391.250 C 531.585 394.137, 527.662 401.450, 524.487 407.500 C 521.311 413.550, 515.628 424.186, 511.857 431.136 C 508.085 438.085, 505.002 444.160, 505.004 444.636 C 505.007 445.111, 508.269 447.180, 512.254 449.233 C 516.239 451.286, 526.807 457.014, 535.738 461.963 C 561.337 476.147, 578.251 485, 579.750 485 C 582.865 485, 593.711 455.647, 598.575 434.055 C 601.341 421.775, 602.993 410.114, 602.048 409.530 C 601.715 409.324, 597.829 408.233, 593.412 407.105 C 581.439 404.048, 563.360 397.614, 549.458 391.462 C 542.670 388.458, 536.897 386, 536.631 386 C 536.365 386, 534.822 388.363, 533.203 391.250 M 407.033 412.161 C 400.602 422.656, 390.372 454.590, 388.024 471.500 C 385.823 487.349, 385.597 485.818, 390.316 487.057 C 408.457 491.821, 424.091 496.939, 436.225 502.085 C 444.076 505.415, 451.126 508.221, 451.891 508.320 C 452.719 508.427, 456.906 502.224, 462.233 493 C 472.441 475.324, 485 452.222, 485 451.122 C 485 450.715, 478.363 446.839, 470.250 442.509 C 462.137 438.179, 452.125 432.753, 448 430.451 C 443.875 428.149, 434.425 422.992, 427 418.991 C 419.575 414.989, 412.505 411.065, 411.290 410.269 C 409.218 408.913, 408.950 409.032, 407.033 412.161 M 617 411.763 C 617 414.155, 612.698 437.300, 610.823 445 C 608.708 453.682, 602.668 470.684, 597.019 483.853 C 595.285 487.898, 594.080 491.766, 594.343 492.450 C 594.957 494.052, 651.612 526, 653.836 526 C 654.914 526, 659.589 515.117, 662.857 505 C 666.160 494.775, 668.788 482.406, 670.081 471 C 671.850 455.395, 670.301 413.634, 667.877 411.605 C 667.670 411.432, 663.675 411.705, 659 412.214 C 650.739 413.112, 621.437 412.488, 618.474 411.351 C 617.663 411.040, 617 411.226, 617 411.763 M 495.681 461.750 C 486.332 476.704, 465.259 515.707, 466.149 516.409 C 466.342 516.561, 469.829 518.815, 473.898 521.418 C 485.703 528.971, 499.725 539.981, 510.292 549.995 L 520.084 559.275 525.482 555.557 C 535.333 548.772, 552.730 529.699, 562.458 515.018 C 567.371 507.603, 571.416 500.675, 571.446 499.622 C 571.487 498.163, 567.461 495.465, 554.500 488.267 C 531.755 475.635, 499.140 458, 498.522 458 C 498.249 458, 496.970 459.688, 495.681 461.750 M 324.288 497.646 L 322.076 498.129 324.200 503.815 C 334.344 530.977, 347.397 552.018, 365.590 570.532 C 372.517 577.580, 386.085 589.249, 386.671 588.662 C 386.843 588.490, 385.359 584.333, 383.372 579.425 C 375.667 560.385, 371 535.168, 371 512.573 C 371 500.808, 370.791 499.123, 369.250 498.450 C 367.295 497.596, 327.754 496.889, 324.288 497.646 M 385.001 509.250 C 385.003 534.789, 390.385 559.792, 401.681 586.750 C 403.122 590.188, 404.664 593, 405.108 593 C 405.552 593, 406.988 591.087, 408.299 588.750 C 411.237 583.510, 427.731 554.065, 437.643 536.363 C 441.690 529.137, 445 522.956, 445 522.627 C 445 521.624, 433.291 516.047, 421.584 511.475 C 412.886 508.078, 388.543 501, 385.558 501 C 385.251 501, 385 504.712, 385.001 509.250 M 581.043 513.240 C 572.363 527.308, 561.378 540.692, 545.786 556.194 L 530.001 571.888 536.040 581.194 C 539.361 586.312, 545.221 596.677, 549.062 604.227 L 556.045 617.953 561.272 615.911 C 568.568 613.060, 586.327 603.606, 593.500 598.754 C 608.181 588.823, 625.165 572.578, 635.237 558.832 C 642.594 548.792, 647.215 541.004, 646.666 539.572 C 646.072 538.025, 588.546 505.988, 586.399 506.009 C 585.904 506.013, 583.495 509.267, 581.043 513.240 M 456.221 532.750 C 455.168 534.263, 451.130 541.350, 447.249 548.500 C 443.367 555.650, 435.651 569.600, 430.101 579.500 C 424.551 589.400, 420.008 598.085, 420.005 598.800 C 419.999 600.401, 427.863 599.724, 442.273 596.881 C 461.112 593.164, 481.155 585.322, 499.681 574.419 L 509.235 568.796 503.368 562.819 C 492.452 551.700, 463.419 530, 459.459 530 C 458.731 530, 457.274 531.237, 456.221 532.750 M 511 584.601 C 502.737 589.935, 483.714 599.293, 473 603.294 C 462.004 607.400, 445.917 611.640, 437.637 612.613 C 434.475 612.984, 432.251 613.618, 432.694 614.020 C 434.165 615.355, 455.360 621.959, 464.500 623.930 C 477.493 626.732, 496.887 628.357, 508.757 627.639 C 519.287 627.002, 539.794 623.417, 541.400 621.933 C 543.117 620.345, 520.209 580.965, 517.603 581.026 C 516.996 581.040, 514.025 582.649, 511 584.601 M 500.495 713.250 C 500.118 714.313, 493.870 747.407, 492.329 756.500 L 491.820 759.500 507.479 759.500 C 522.611 759.500, 523.124 759.433, 522.720 757.500 C 522.491 756.400, 520.373 745.712, 518.015 733.750 L 513.727 712 507.332 712 C 503.119 712, 500.786 712.426, 500.495 713.250 M 481.291 776.519 C 461.936 779.291, 440.788 787.860, 425.651 799.065 C 421.884 801.854, 418.959 804.272, 419.151 804.439 C 419.343 804.606, 459.464 805.027, 508.310 805.373 C 572.729 805.830, 596.933 805.701, 596.441 804.904 C 595.353 803.143, 583.217 795.611, 574.112 791.045 C 562.941 785.443, 544.701 779.443, 533 777.522 C 519.057 775.232, 493.713 774.741, 481.291 776.519" stroke="none" fill="#43506c" fill-rule="evenodd"/></svg>